<?xml version="1.0" standalone="no"?>
<!DOCTYPE svg PUBLIC "-//W3C//DTD SVG 20010904//EN"
 "http://www.w3.org/TR/2001/REC-SVG-20010904/DTD/svg10.dtd">
<svg version="1.0" xmlns="http://www.w3.org/2000/svg"
 width="590.000000pt" height="590.000000pt" viewBox="0 0 590.000000 590.000000"
 preserveAspectRatio="xMidYMid meet">
<metadata>
Created by potrace 1.14, written by Peter Selinger 2001-2017
</metadata>
<g transform="translate(0.000000,590.000000) scale(0.100000,-0.100000)"
fill="#000000" stroke="none">
<path d="M2609 5896 c-2 -2 -33 -6 -69 -10 -56 -5 -245 -35 -305 -49 -87 -20
-328 -99 -375 -122 -14 -6 -81 -40 -150 -73 -158 -78 -302 -172 -470 -307 -14
-11 -77 -72 -141 -135 -269 -266 -464 -579 -583 -933 -47 -138 -60 -192 -91
-361 -24 -129 -30 -211 -30 -406 0 -214 6 -279 41 -469 38 -200 152 -516 243
-669 17 -29 31 -55 31 -58 0 -8 143 -222 172 -258 165 -207 299 -336 505 -487
67 -50 120 -96 118 -102 -22 -69 -28 -435 -9 -507 26 -97 68 -121 167 -95 61
16 121 53 172 106 35 36 67 54 113 62 82 16 99 -25 127 -318 18 -196 92 -411
183 -535 78 -106 147 -118 203 -35 27 38 70 119 76 140 2 6 19 56 38 113 47
134 89 327 110 502 9 78 15 114 20 118 2 2 34 -1 72 -8 174 -30 473 -32 663
-4 145 21 396 84 495 125 17 7 35 13 40 14 6 2 48 20 95 40 351 156 698 429
929 733 62 82 151 210 151 218 0 2 11 22 24 43 139 220 274 604 312 886 3 27
8 61 10 75 10 57 12 421 4 500 -42 393 -161 738 -366 1062 -311 490 -813 860
-1385 1022 -68 19 -157 47 -197 61 -95 33 -244 71 -357 89 -49 8 -106 18 -125
21 -37 7 -455 16 -461 11z m684 -1606 c282 -70 504 -289 583 -575 23 -87 28
-267 8 -362 -43 -212 -175 -404 -359 -520 -265 -167 -614 -161 -874 15 -336
227 -451 671 -267 1027 172 334 546 505 909 415z"/>
</g>
</svg>
